HIERARCHY
ROOT Hips
{
    OFFSET 0.000000 0.000000 0.000000
    CHANNELS 6 Xposition Yposition Zposition Zrotation Xrotation Yrotation
    JOINT Spine
    {
        OFFSET -0.000000 14.517291 0.000000
        CHANNELS 3 Zrotation Xrotation Yrotation
        JOINT Spine1
        {
            OFFSET -0.000000 37.558300 0.000000
            CHANNELS 3 Zrotation Xrotation Yrotation
            JOINT Neck
            {
                OFFSET -0.000000 37.404057 3.400369
                CHANNELS 3 Zrotation Xrotation Yrotation
                JOINT Head
                {
                    OFFSET -0.000000 24.785618 -3.540803
                    CHANNELS 3 Zrotation Xrotation Yrotation
                    End Site
                    {
                        OFFSET -0.000000 35.408028 0.000000
                    }
                }
            }
            JOINT LeftShoulder
            {
                OFFSET 6.992933 33.973492 -0.192664
                CHANNELS 3 Zrotation Xrotation Yrotation
                JOINT LeftArm
                {
                    OFFSET 21.527611 0.000000 0.000000
                    CHANNELS 3 Zrotation Xrotation Yrotation
                    JOINT LeftForeArm
                    {
                        OFFSET 56.353916 0.000000 0.000000
                        CHANNELS 3 Zrotation Xrotation Yrotation
                        JOINT LeftHand
                        {
                            OFFSET 47.774071 0.000000 0.000000
                            CHANNELS 3 Zrotation Xrotation Yrotation
                            End Site
                            {
                                OFFSET 26.556021 0.000000 0.000000
                            }
                        }
                    }
                }
            }
            JOINT RightShoulder
            {
                OFFSET -7.065357 33.973492 -0.192664
                CHANNELS 3 Zrotation Xrotation Yrotation
                JOINT RightArm
                {
                    OFFSET -21.527611 0.000000 0.000000
                    CHANNELS 3 Zrotation Xrotation Yrotation
                    JOINT RightForeArm
                    {
                        OFFSET -56.353916 0.000000 0.000000
                        CHANNELS 3 Zrotation Xrotation Yrotation
                        JOINT RightHand
                        {
                            OFFSET -47.774071 0.000000 0.000000
                            CHANNELS 3 Zrotation Xrotation Yrotation
                            End Site
                            {
                                OFFSET -26.556021 0.000000 0.000000
                            }
                        }
                    }
                }
            }
        }
    }
    JOINT LeftUpLeg
    {
        OFFSET 17.704014 0.000000 0.000000
        CHANNELS 3 Zrotation Xrotation Yrotation
        JOINT LeftLeg
        {
            OFFSET -0.000000 -81.181816 0.000000
            CHANNELS 3 Zrotation Xrotation Yrotation
            JOINT LeftFoot
            {
                OFFSET -0.000000 -62.821102 0.000000
                CHANNELS 3 Zrotation Xrotation Yrotation
                JOINT LeftToeBase
                {
                    OFFSET -0.000000 -11.507608 26.556021
                    CHANNELS 3 Zrotation Xrotation Yrotation
                    End Site
                    {
                        OFFSET -0.000000 0.000000 7.081605
                    }
                }
            }
        }
    }
    JOINT RightUpLeg
    {
        OFFSET -17.704014 0.000000 0.000000
        CHANNELS 3 Zrotation Xrotation Yrotation
        JOINT RightLeg
        {
            OFFSET -0.000000 -81.181816 0.000000
            CHANNELS 3 Zrotation Xrotation Yrotation
            JOINT RightFoot
            {
                OFFSET -0.000000 -62.821102 0.000000
                CHANNELS 3 Zrotation Xrotation Yrotation
                JOINT RightToeBase
                {
                    OFFSET -0.000000 -11.507608 26.556021
                    CHANNELS 3 Zrotation Xrotation Yrotation
                    End Site
                    {
                        OFFSET -0.000000 0.000000 7.081605
                    }
                }
            }
        }
    }
}
MOTION
Frames:    8
Frame Time:    0.008333
32.150085    154.780777    -99.231514    1.243316    -2.769847    27.516924    1.510875    -0.559330    -3.719711    -10.650246    0.138830    -1.229685    8.192465    13.011827    -8.998181    11.558069    -8.858515    -7.104826    12.588305    -5.170519    -14.918222    -25.884787    -34.183216    -36.478008    -14.344721    -41.055969    -87.543755    -40.038113    -38.703461    -43.899731    -17.931761    0.803454    -10.045238    20.795174    18.648418    10.645738    19.686367    -18.345793    8.915665    -27.192402    -36.443985    68.285858    3.636686    -6.317098    -0.135843    -14.419358    39.640469    -17.486460    16.091904    -24.608257    44.323730    0.000000    0.000000    0.000000    -13.576395    -24.525425    20.200788    6.225797    19.927502    2.294603    8.172142    4.717259    -0.274826    0.000000    0.000000    0.000000    
32.053379    154.823196    -99.125198    1.243976    -2.741708    27.508068    1.477330    -0.552241    -3.728208    -10.635921    0.111398    -1.235013    8.273594    13.018343    -8.974381    11.500147    -8.882473    -7.092256    12.595808    -5.153008    -14.918086    -25.962029    -34.329494    -36.500458    -14.411685    -40.893017    -87.558533    -39.929272    -38.638371    -43.871696    -17.900145    0.825308    -10.057295    20.778690    18.635798    10.663226    19.667330    -18.379267    8.911400    -27.217339    -36.474888    68.250206    3.695591    -6.280568    -0.108430    -14.436318    39.548801    -17.528755    16.018314    -24.580435    44.325069    0.000000    0.000000    0.000000    -13.541315    -24.556234    20.121462    6.212405    19.964565    2.289588    8.161433    4.779637    -0.215228    0.000000    0.000000    0.000000    
31.956306    154.865494    -99.019203    1.248952    -2.711570    27.499243    1.468813    -0.524194    -3.752467    -10.669680    0.048104    -1.248847    8.327121    12.962306    -8.937455    11.487906    -8.789859    -7.071387    12.614450    -5.147624    -14.879981    -25.975317    -34.316757    -36.494003    -14.401175    -40.896446    -87.577782    -39.915009    -38.638931    -43.883030    -17.855698    0.871973    -10.088885    19.931686    18.493958    10.585377    19.667330    -18.379267    8.911400    -27.217339    -36.474888    68.250206    3.738636    -6.239820    -0.065225    -14.415132    39.453064    -17.601578    15.964697    -24.542274    44.328911    0.000000    0.000000    0.000000    -13.510944    -24.585526    20.053520    6.201955    19.995722    2.285192    8.160256    4.830800    -0.165798    0.000000    0.000000    0.000000    
31.864128    154.907364    -98.901405    1.268831    -2.702418    27.494324    1.427601    -0.495686    -3.776664    -10.638086    0.021387    -1.259187    8.316778    12.942688    -8.903646    11.524738    -8.758052    -7.032371    12.582627    -5.168537    -14.871943    -25.948711    -34.271755    -36.456024    -14.363544    -40.958347    -87.583527    -39.895870    -38.687660    -43.866226    -17.876446    0.870522    -10.123615    20.795332    18.727283    10.782558    19.555716    -18.450274    8.905288    -27.233232    -36.512039    68.166618    3.773181    -6.162043    -0.027162    -14.377295    39.344761    -17.692535    15.914732    -24.513382    44.346390    0.000000    0.000000    0.000000    -13.482740    -24.585272    19.979626    6.195757    20.033033    2.286384    8.128460    4.869551    -0.110156    0.000000    0.000000    0.000000    
31.771698    154.950684    -98.795013    1.287205    -2.674886    27.486038    1.397729    -0.486084    -3.792733    -10.665572    -0.006982    -1.267077    8.419476    12.962276    -8.873074    11.485040    -8.780977    -7.008532    12.602488    -5.165519    -14.875730    -25.991949    -34.366806    -36.480568    -14.407305    -40.859085    -87.548103    -39.890583    -38.611473    -43.873383    -17.846088    0.856200    -10.138083    20.799009    18.707098    10.811919    19.549255    -18.460442    8.875772    -27.225859    -36.511089    68.164299    3.786368    -6.112878    0.025633    -14.301234    39.254398    -17.745937    15.818144    -24.501183    44.300835    0.000000    0.000000    0.000000    -13.465211    -24.602547    19.899923    6.187035    20.055723    2.251001    8.107355    4.924716    -0.007028    0.000000    0.000000    0.000000    
31.671822    154.989914    -98.687340    1.299627    -2.635373    27.484089    1.362949    -0.495425    -3.825757    -10.689890    -0.042318    -1.281400    8.475430    13.013435    -8.837642    11.508037    -8.811109    -6.961262    12.632465    -5.142060    -14.899020    -26.010843    -34.510841    -36.457439    -14.512580    -40.730213    -87.543777    -39.874840    -38.568924    -43.860973    -17.816704    0.824610    -10.089320    20.808510    18.673861    10.772263    19.578697    -18.446918    8.870865    -27.208637    -36.495468    68.180794    3.792835    -6.081077    0.078981    -14.203918    39.169018    -17.786615    15.718980    -24.500738    44.242260    0.000000    0.000000    0.000000    -13.448507    -24.629923    19.825670    6.173950    20.079119    2.235371    8.121906    4.968685    0.062882    0.000000    0.000000    0.000000    
31.572891    155.029510    -98.587250    1.312559    -2.585205    27.485039    1.286603    -0.518527    -3.862178    -10.655582    -0.162359    -1.304705    8.537302    13.244390    -8.802916    11.485173    -8.906562    -6.904102    12.602815    -5.003561    -15.018419    -25.958847    -34.651237    -36.376347    -14.541018    -40.658138    -87.507950    -39.789242    -38.558079    -43.809704    -17.787874    0.903146    -9.908894    19.994341    18.434387    10.527201    19.578697    -18.446918    8.870865    -27.208637    -36.495468    68.180794    3.796672    -6.064308    0.095390    -14.141669    39.080921    -17.797979    15.612845    -24.492428    44.185925    0.000000    0.000000    0.000000    -13.440839    -24.665634    19.732111    6.155252    20.097843    2.217938    8.110273    5.023665    0.159932    0.000000    0.000000    0.000000    
31.481651    155.068832    -98.487816    1.323519    -2.549633    27.475540    1.252041    -0.529260    -3.884673    -10.640341    -0.177033    -1.313566    8.548100    13.236891    -8.782558    11.487427    -8.879861    -6.885858    12.585024    -5.016749    -15.008555    -25.918137    -34.572407    -36.367588    -14.466508    -40.778004    -87.462440    -39.846920    -38.595425    -43.806343    -17.796818    0.899252    -9.918887    20.829245    18.556566    10.703363    19.618444    -18.463348    8.883253    -27.241716    -36.508575    68.096268    3.792935    -6.033891    0.142224    -14.031083    38.997478    -17.817272    15.487178    -24.502211    44.115288    0.000000    0.000000    0.000000    -13.425187    -24.691725    19.694040    6.154411    20.112047    2.230720    8.134505    5.064667    0.189472    0.000000    0.000000    0.000000    
